<?xml version="1.0" encoding="iso-8859-1"?>
<!-- Generator: Adobe Illustrator 16.0.0, SVG Export Plug-In . SVG Version: 6.00 Build 0)  -->
<!DOCTYPE svg PUBLIC "-//W3C//DTD SVG 1.1//EN" "http://www.w3.org/Graphics/SVG/1.1/DTD/svg11.dtd">
<svg version="1.1" id="Capa_1" xmlns="http://www.w3.org/2000/svg" xmlns:xlink="http://www.w3.org/1999/xlink" x="0px" y="0px"
	 width="94px" height="94px" viewBox="0 0 94 94" style="enable-background:new 0 0 94 94;" xml:space="preserve">
<g>
	<path d="M94,89c0,2.761-2.238,5-5,5H5c-2.762,0-5-2.239-5-5V5c0-2.761,2.238-5,5-5h84c2.762,0,5,2.239,5,5V89z M68.52,28.309
		c-9.781,0-17.711,8.269-17.711,18.468c0,10.202,7.93,18.469,17.711,18.469c9.78,0,17.711-8.268,17.711-18.469
		C86.229,36.578,78.3,28.309,68.52,28.309z M24.985,28.309c-9.508,0-17.215,8.369-17.215,18.692s7.707,18.69,17.215,18.69
		C34.491,65.691,42.2,57.323,42.2,47S34.491,28.309,24.985,28.309z"/>
</g>
<g>
</g>
<g>
</g>
<g>
</g>
<g>
</g>
<g>
</g>
<g>
</g>
<g>
</g>
<g>
</g>
<g>
</g>
<g>
</g>
<g>
</g>
<g>
</g>
<g>
</g>
<g>
</g>
<g>
</g>
</svg>
