<?xml version="1.0" encoding="utf-8"?>
<!-- Generator: Adobe Illustrator 17.0.0, SVG Export Plug-In . SVG Version: 6.00 Build 0)  -->
<!DOCTYPE svg PUBLIC "-//W3C//DTD SVG 1.1//EN" "http://www.w3.org/Graphics/SVG/1.1/DTD/svg11.dtd">
<svg version="1.1" id="Capa_1" xmlns="http://www.w3.org/2000/svg" xmlns:xlink="http://www.w3.org/1999/xlink" x="0px" y="0px"
	 width="94px" height="94px" viewBox="0 0 94 94" enable-background="new 0 0 94 94" xml:space="preserve">
<path d="M88.359,94.25H5.891C2.637,94.25,0,91.613,0,88.359V5.891C0,2.637,2.637,0,5.891,0h82.469c3.253,0,5.891,2.637,5.891,5.891
	v82.469C94.25,91.613,91.613,94.25,88.359,94.25z M49.342,57.362c0,0,0-9.818,0-15.059c0-4.719-2.401-7.164-6.506-7.164
	c-3.41,0-5.769,2.009-7.033,3.843c-0.919-2.576-2.97-3.843-5.984-3.843c-3.406,0-5.591,1.92-6.552,3.057v-2.783h-5.68v21.948h5.68
	V42.303c0.83-1.007,2.186-2.403,4.151-2.403c2.183,0,3.188,1.354,3.188,3.71c0,2.797,0,13.752,0,13.752h5.677c0,0,0-9.818,0-15.059
	c0.874-1.007,2.185-2.403,4.149-2.403c2.185,0,3.231,1.354,3.231,3.71c0,2.797,0,13.752,0,13.752H49.342z M75.594,48.11v-1.834
	c0-6.333-4.632-11.137-10.876-11.137c-6.468,0-11.051,5.022-11.051,11.137c0,6.552,4.981,11.137,11.356,11.137
	c2.62,0,6.465-0.741,9.038-3.448l-2.835-3.278c-1.487,1.531-4.019,2.184-5.767,2.184c-3.232,0-5.546-1.966-6.116-4.761H75.594z
	 M70.395,44.486H59.26c0.39-2.664,2.225-5.111,5.546-5.111C68.3,39.375,70.089,41.951,70.395,44.486z"/>
</svg>
