<?xml version="1.0" encoding="iso-8859-1"?>
<!-- Generator: Adobe Illustrator 16.0.0, SVG Export Plug-In . SVG Version: 6.00 Build 0)  -->
<!DOCTYPE svg PUBLIC "-//W3C//DTD SVG 1.1//EN" "http://www.w3.org/Graphics/SVG/1.1/DTD/svg11.dtd">
<svg version="1.1" id="Capa_1" xmlns="http://www.w3.org/2000/svg" xmlns:xlink="http://www.w3.org/1999/xlink" x="0px" y="0px"
	 width="94px" height="94px" viewBox="0 0 94 94" style="enable-background:new 0 0 94 94;" xml:space="preserve">
<g>
	<g>
		<path d="M40.896,56.609c-0.762-0.303-1.719,0.062-2.162,0.812c-0.434,0.754-0.195,1.612,0.568,1.928
			c0.775,0.318,1.768-0.051,2.217-0.818C41.947,57.762,41.67,56.895,40.896,56.609z"/>
		<path d="M36.002,58.639c-1.986-0.832-4.551,0.025-5.777,1.947c-1.24,1.928-0.658,4.229,1.313,5.123
			c2.002,0.914,4.656,0.046,5.896-1.932C38.652,61.775,38.008,59.496,36.002,58.639z"/>
		<path d="M89,0H5C2.238,0,0,2.238,0,5v84c0,2.762,2.238,5,5,5h84c2.762,0,5-2.238,5-5V5C94,2.238,91.762,0,89,0z M40.77,78.368
			c-16.07,0-32.494-7.784-32.494-20.597c0-6.692,4.242-14.438,11.547-21.744c9.758-9.752,21.135-14.193,25.41-9.914
			c1.889,1.885,2.07,5.152,0.857,9.05c-0.633,1.965,1.844,0.879,1.844,0.881c7.885-3.301,14.765-3.495,17.279,0.097
			c1.34,1.914,1.213,4.6-0.023,7.712c-0.571,1.434,0.179,1.654,1.269,1.981c4.442,1.378,9.388,4.708,9.388,10.578
			C75.844,66.131,61.834,78.368,40.77,78.368z M69.855,37.646c0.521-1.606,0.194-3.436-1.019-4.779
			c-1.209-1.341-2.998-1.851-4.646-1.501v-0.003c-1.375,0.301-2.732-0.584-3.027-1.957c-0.297-1.381,0.584-2.739,1.963-3.032
			c3.373-0.718,7.029,0.327,9.504,3.07c2.482,2.749,3.145,6.486,2.084,9.771c-0.434,1.342-1.871,2.077-3.213,1.646
			c-1.342-0.435-2.076-1.876-1.643-3.214L69.855,37.646L69.855,37.646z M84.732,42.449c0,0.004,0,0.01,0,0.012
			c-0.506,1.555-2.176,2.408-3.734,1.904c-1.562-0.505-2.416-2.174-1.91-3.735c1.547-4.791,0.566-10.254-3.047-14.259
			c-3.619-4.005-8.949-5.537-13.875-4.489c-1.602,0.342-3.178-0.682-3.52-2.28c-0.347-1.604,0.68-3.181,2.278-3.52h0.005
			c6.926-1.473,14.428,0.677,19.512,6.313C85.531,28.03,86.904,35.71,84.732,42.449z"/>
		<path d="M37.799,43.295c-12.818,1.27-22.543,9.121-21.711,17.535c0.836,8.42,11.902,14.213,24.723,12.949
			c12.822-1.268,22.539-9.121,21.71-17.541C61.689,47.824,50.621,42.026,37.799,43.295z M49.049,63.148
			c-2.615,5.916-10.145,9.074-16.529,7.016c-6.164-1.991-8.771-8.079-6.072-13.562c2.648-5.375,9.545-8.414,15.646-6.828
			C48.406,51.404,51.629,57.364,49.049,63.148z"/>
	</g>
</g>
<g>
</g>
<g>
</g>
<g>
</g>
<g>
</g>
<g>
</g>
<g>
</g>
<g>
</g>
<g>
</g>
<g>
</g>
<g>
</g>
<g>
</g>
<g>
</g>
<g>
</g>
<g>
</g>
<g>
</g>
</svg>
